<svg width="202" height="80" viewBox="0 0 202 80" fill="none" xmlns="http://www.w3.org/2000/svg">
<path d="M36.184 79.672C52.424 79.672 56.68 65.896 56.68 49.208C56.68 29.944 47.72 22.552 36.744 22.552C25.544 22.552 21.4 34.872 19.048 34.872C16.472 34.872 20.392 30.056 21.512 27.928C22.296 25.464 24.424 19.864 24.424 12.248C24.424 8.216 22.408 0.599995 12.776 0.599995C3.032 0.599995 0.68 6.87199 0.68 34.872C0.68 72.728 1.016 79 14.12 79C21.176 79 17.032 64.776 18.376 64.776C20.504 64.776 23.416 79.672 36.184 79.672ZM24.76 50.776C24.76 45.624 25.88 42.936 28.68 42.936C30.808 42.936 32.152 45.624 32.152 50.888C32.152 56.04 31.48 60.408 28.68 60.408C25.096 60.408 24.76 55.032 24.76 50.776ZM86.1824 79.672C100.63 79.672 108.358 74.296 108.358 65.56C108.358 58.952 106.006 55.704 102.646 55.704C98.6144 55.704 96.0384 60.408 88.1984 60.408C80.3584 60.408 77.2224 54.808 77.2224 52.568C77.2224 51.672 77.6704 51.224 78.4544 51.224C80.2464 51.224 81.9264 54.36 89.8784 54.36C105.782 54.36 108.582 47.192 108.582 39.688C108.582 29.608 101.638 22.328 86.1824 22.328C72.4064 22.328 58.7424 28.376 58.7424 51.336C58.7424 66.568 66.2464 79.672 86.1824 79.672ZM82.4864 44.392C82.4864 40.696 83.8304 39.016 85.9584 39.016C88.3104 39.016 89.4304 40.584 89.4304 44.168C89.4304 48.312 88.1984 49.208 86.0704 49.208C83.8304 49.208 82.4864 48.424 82.4864 44.392ZM123.786 79C131.626 79 135.434 75.08 135.434 66.344C135.434 59.176 134.986 52.792 134.986 49.768C134.986 45.064 136.218 42.936 138.794 42.936C141.482 42.936 142.042 44.84 142.042 51.784C142.042 56.6 141.482 62.76 141.482 66.792C141.482 78.104 147.754 79 153.69 79C162.09 79 165.114 73.848 165.114 50.888C165.114 28.6 158.954 22.44 147.978 22.44C134.314 22.44 131.402 36.664 127.594 38.344C125.914 38.456 129.386 34.648 129.386 30.84C129.386 26.808 129.05 23 124.234 23C113.93 23 111.914 27.032 111.914 51.448C111.914 72.28 114.602 79 123.786 79ZM186.941 79C199.709 79 201.277 75.08 201.277 65.448C201.277 59.736 199.261 58.616 196.573 58.616C193.325 58.616 191.533 55.48 191.533 48.536C191.533 39.24 189.965 39.464 194.781 39.128C196.461 38.68 201.165 39.8 201.165 31.848C201.165 24.68 199.037 24.568 197.133 24.568C193.325 24.568 191.309 26.136 191.309 22.552C191.309 14.712 188.845 12.584 180.445 12.584C171.821 12.584 168.461 18.968 168.461 48.424C168.461 74.184 172.045 79 186.941 79Z" fill="#FFFDF8"/>
</svg>
