<svg width="250" height="209" viewBox="0 0 250 209" fill="none" xmlns="http://www.w3.org/2000/svg">
<path fill-rule="evenodd" clip-rule="evenodd" d="M148.518 0.888583C182.435 -3.40453 219.968 7.79674 239.521 35.841C258.163 62.578 248.34 97.9633 237.676 128.763C228.719 154.629 210.617 174.429 186.839 187.989C160.159 203.203 131.082 213.877 101.253 206.56C60.4906 196.561 5.52275 183.886 0.329727 142.237C-4.84598 100.727 52.1764 84.5954 82.4459 55.723C104.235 34.9396 118.645 4.66985 148.518 0.888583Z" fill="#4B09F5"/>
<path d="M60.184 142.672C76.424 142.672 80.68 128.896 80.68 112.208C80.68 92.944 71.72 85.552 60.744 85.552C49.544 85.552 45.4 97.872 43.048 97.872C40.472 97.872 44.392 93.056 45.512 90.928C46.296 88.464 48.424 82.864 48.424 75.248C48.424 71.216 46.408 63.6 36.776 63.6C27.032 63.6 24.68 69.872 24.68 97.872C24.68 135.728 25.016 142 38.12 142C45.176 142 41.032 127.776 42.376 127.776C44.504 127.776 47.416 142.672 60.184 142.672ZM48.76 113.776C48.76 108.624 49.88 105.936 52.68 105.936C54.808 105.936 56.152 108.624 56.152 113.888C56.152 119.04 55.48 123.408 52.68 123.408C49.096 123.408 48.76 118.032 48.76 113.776ZM110.182 142.672C124.63 142.672 132.358 137.296 132.358 128.56C132.358 121.952 130.006 118.704 126.646 118.704C122.614 118.704 120.038 123.408 112.198 123.408C104.358 123.408 101.222 117.808 101.222 115.568C101.222 114.672 101.67 114.224 102.454 114.224C104.246 114.224 105.926 117.36 113.878 117.36C129.782 117.36 132.582 110.192 132.582 102.688C132.582 92.608 125.638 85.328 110.182 85.328C96.4064 85.328 82.7424 91.376 82.7424 114.336C82.7424 129.568 90.2464 142.672 110.182 142.672ZM106.486 107.392C106.486 103.696 107.83 102.016 109.958 102.016C112.31 102.016 113.43 103.584 113.43 107.168C113.43 111.312 112.198 112.208 110.07 112.208C107.83 112.208 106.486 111.424 106.486 107.392ZM147.786 142C155.626 142 159.434 138.08 159.434 129.344C159.434 122.176 158.986 115.792 158.986 112.768C158.986 108.064 160.218 105.936 162.794 105.936C165.482 105.936 166.042 107.84 166.042 114.784C166.042 119.6 165.482 125.76 165.482 129.792C165.482 141.104 171.754 142 177.69 142C186.09 142 189.114 136.848 189.114 113.888C189.114 91.6 182.954 85.44 171.978 85.44C158.314 85.44 155.402 99.664 151.594 101.344C149.914 101.456 153.386 97.648 153.386 93.84C153.386 89.808 153.05 86 148.234 86C137.93 86 135.914 90.032 135.914 114.448C135.914 135.28 138.602 142 147.786 142ZM210.941 142C223.709 142 225.277 138.08 225.277 128.448C225.277 122.736 223.261 121.616 220.573 121.616C217.325 121.616 215.533 118.48 215.533 111.536C215.533 102.24 213.965 102.464 218.781 102.128C220.461 101.68 225.165 102.8 225.165 94.848C225.165 87.68 223.037 87.568 221.133 87.568C217.325 87.568 215.309 89.136 215.309 85.552C215.309 77.712 212.845 75.584 204.445 75.584C195.821 75.584 192.461 81.968 192.461 111.424C192.461 137.184 196.045 142 210.941 142Z" fill="#FFFDF8"/>
</svg>
